<?xml version="1.0" encoding="utf-8"?>
<!-- Uploaded to: SVG Repo, www.svgrepo.com, Generator: SVG Repo Mixer Tools -->
<svg width="800px" height="800px" viewBox="0 0 1024 1024" class="icon"  version="1.1" xmlns="http://www.w3.org/2000/svg"><path d="M512 199c19.3 0 38.3 1.8 56.9 5.2v-75.4H450.6V205c20-4 40.5-6 61.4-6zM149.4 373.5l66 38.1c12.6-37.4 32.4-72.3 58.5-102.8l-65.4-37.7-59.1 102.4zM276.9 718.6c-26.6-30.2-46.9-64.8-60.1-102l-65.2 37.7 59.2 102.5 66.1-38.2zM512 825c-19.3 0-38.3-1.8-56.9-5.2v75.4h118.3V819c-20 4-40.5 6-61.4 6zM815.5 752.9l59.2-102.5-66-38.1c-12.6 37.4-32.4 72.3-58.5 102.8l65.3 37.8z" fill="#FFBC00" /><path d="M904.8 642.4c-1.9-7-6.3-12.8-12.6-16.4L817 582.6c5.2-22.9 8-46.5 8-70.6 0-25.7-3.1-50.8-9-75.1l74-42.7c6.2-3.6 10.7-9.4 12.6-16.4 1.9-7 0.9-14.2-2.7-20.5l-62.2-107.7c-3.6-6.2-9.4-10.7-16.4-12.6-7-1.9-14.2-0.9-20.5 2.7l-75.3 43.5c-36.5-34.1-79.7-58.5-126.6-72v-85.5c0-14.9-12.1-27-27-27H447.6c-14.9 0-27 12.1-27 27v86.8c-46.6 14.2-89.5 39.2-125.5 73.9L221 243.6c-6.2-3.6-13.5-4.6-20.5-2.7-7 1.9-12.8 6.3-16.4 12.6l-62.2 107.7c-3.6 6.2-4.6 13.5-2.7 20.5 1.9 7 6.3 12.8 12.6 16.4l75.2 43.4c-5.2 22.9-8 46.5-8 70.6 0 25.7 3.1 50.8 9 75.1l-74 42.7c-6.2 3.6-10.7 9.4-12.6 16.4-1.9 7-0.9 14.2 2.7 20.5l62.2 107.7c3.6 6.2 9.4 10.7 16.4 12.6 2.3 0.6 4.7 0.9 7.1 0.9 4.7 0 9.3-1.2 13.4-3.6l75.3-43.5c36.5 34.1 79.7 58.5 126.6 72v85.5c0 14.9 12.1 27 27 27h124.3c14.9 0 27-12.1 27-27v-86.8c46.6-14.2 89.5-39.2 125.5-73.9l74.1 42.8c4.2 2.4 8.9 3.6 13.5 3.6 9.3 0 18.4-4.8 23.4-13.5l62.2-107.7c3.6-6.3 4.6-13.6 2.7-20.5z m-30.2 8.1L815.4 753 750 715.3c26.2-30.6 45.9-65.4 58.5-102.8l66.1 38z m-67.5-243.2c-13.2-37.2-33.4-71.7-60.1-102l66.1-38.2 59.2 102.5-65.2 37.7zM568.9 128.7v75.4c-18.6-3.4-37.6-5.2-56.9-5.2-20.9 0-41.4 2-61.4 6v-76.3h118.3z m-295 180.1c-26.2 30.6-45.9 65.4-58.5 102.8l-66-38.1L208.6 271l65.3 37.8z m-57 307.9c13.2 37.2 33.4 71.7 60.1 102l-66.1 38.2-59.2-102.5 65.2-37.7z m95 95.4C258.4 658.7 229 587.6 229 512s29.4-146.7 82.9-200.1C365.3 258.4 436.4 229 512 229s146.7 29.4 200.1 82.9c33.6 33.6 57.7 74.1 71 118.3L430.2 783.1c-44.2-13.3-84.7-37.4-118.3-71z m143.2 183.2v-75.4c18.6 3.4 37.6 5.2 56.9 5.2 20.9 0 41.4-2 61.4-6v76.3H455.1z m99.1-103.4c-13.8 2.1-27.9 3.1-42.2 3.1-16 0-31.9-1.3-47.3-3.9l326.4-326.4c2.6 15.5 3.9 31.3 3.9 47.3 0 14.2-1 28.3-3.1 42.2L554.2 791.9z m57.2-14.8l165.8-165.8c-14 37.4-35.9 71.7-65 100.8-29.2 29.1-63.4 51-100.8 65z" fill="#46287C" /><path d="M747.1 305.4c26.6 30.2 46.9 64.8 60.1 102l65.2-37.7-59.2-102.5-66.1 38.2zM791.9 554.2c2.1-13.8 3.1-27.9 3.1-42.2 0-16-1.3-31.9-3.9-47.3L464.7 791.1c15.5 2.6 31.3 3.9 47.3 3.9 14.2 0 28.3-1 42.2-3.1l237.7-237.7zM783.1 430.2c-13.3-44.2-37.4-84.8-71-118.3C658.7 258.4 587.6 229 512 229s-146.7 29.4-200.1 82.9C258.4 365.3 229 436.4 229 512s29.4 146.7 82.9 200.1c33.6 33.6 74.1 57.7 118.3 71l352.9-352.9zM409.5 512c0-56.6 45.9-102.5 102.5-102.5S614.5 455.4 614.5 512 568.6 614.5 512 614.5 409.5 568.6 409.5 512zM777.1 611.4L611.4 777.1c37.4-14 71.7-35.9 100.8-65 29-29.1 50.9-63.4 64.9-100.7z" fill="#FFBC00" /><path d="M512 512m-102.5 0a102.5 102.5 0 1 0 205 0 102.5 102.5 0 1 0-205 0Z" fill="#FFFFFF" /></svg>